<svg width="21" height="24" viewBox="0 0 21 24" fill="none" xmlns="http://www.w3.org/2000/svg">
<path d="M10.5 0C9.41325 0 8.53125 0.8064 8.53125 1.8V2.63438C5.13605 3.43451 2.625 6.24576 2.625 9.6V16.8L0.610107 18.1875H0.607544C0.421304 18.2959 0.26799 18.4456 0.161793 18.6225C0.0555955 18.7995 -5.23768e-05 18.9981 3.69913e-08 19.2C3.69913e-08 19.5183 0.138281 19.8235 0.384423 20.0485C0.630564 20.2736 0.964403 20.4 1.3125 20.4H10.5H19.6875C20.0356 20.4 20.3694 20.2736 20.6156 20.0485C20.8617 19.8235 21 19.5183 21 19.2C21.0001 18.9981 20.9444 18.7995 20.8382 18.6225C20.732 18.4456 20.5787 18.2959 20.3925 18.1875L18.375 16.8V9.6C18.375 6.24576 15.8639 3.43451 12.4688 2.63438V1.8C12.4688 0.8064 11.5868 0 10.5 0ZM7.875 21.6C7.875 22.92 9.05625 24 10.5 24C11.9438 24 13.125 22.92 13.125 21.6H7.875Z" fill="white"/>
</svg>
