<svg width="26" height="26" viewBox="0 0 26 26" fill="none" xmlns="http://www.w3.org/2000/svg">
<path d="M1.05469 1.62385C1.23082 1.12289 1.77971 0.859553 2.28068 1.03569L2.66708 1.17153C3.45746 1.44938 4.12877 1.68537 4.65706 1.94459C5.22196 2.22176 5.70636 2.56321 6.07068 3.09635C6.43218 3.62536 6.58143 4.20575 6.65032 4.84211C6.68115 5.12697 6.69742 5.44227 6.70599 5.78883H20.3442C22.5044 5.78883 24.4489 5.78883 25.018 6.52865C25.5872 7.26849 25.3647 8.38322 24.9197 10.6127L24.2789 13.7213C23.875 15.6813 23.6729 16.6613 22.9657 17.2377C22.2584 17.8141 21.2578 17.8141 19.2566 17.8141H12.4582C8.88278 17.8141 7.09508 17.8141 5.98435 16.6426C4.87361 15.4709 4.79255 14.2265 4.79255 10.4553V7.11997C4.79255 6.17135 4.79124 5.53648 4.73847 5.04905C4.68805 4.58323 4.59869 4.35065 4.48298 4.18131C4.37009 4.01611 4.19872 3.86172 3.80998 3.67098C3.39609 3.4679 2.83361 3.26848 1.97773 2.96757L1.64286 2.84983C1.14189 2.67371 0.878565 2.12482 1.05469 1.62385Z" fill="white" stroke="white"/>
<path d="M7.99772 21.173C9.05977 21.173 9.92073 22.034 9.92073 23.096C9.92073 24.158 9.05977 25.019 7.99772 25.019C6.93566 25.019 6.07471 24.158 6.07471 23.096C6.07471 22.034 6.93566 21.173 7.99772 21.173Z" fill="white" stroke="white"/>
<path d="M19.5358 21.173C20.5978 21.173 21.4588 22.0338 21.4588 23.096C21.4588 24.158 20.5978 25.019 19.5358 25.019C18.4738 25.019 17.6128 24.158 17.6128 23.096C17.6128 22.0338 18.4738 21.173 19.5358 21.173Z" fill="white" stroke="white"/>
</svg>
