<svg width="30" height="33" viewBox="0 0 30 33" fill="none" xmlns="http://www.w3.org/2000/svg">
<path d="M2.09131 10.6846L1.03775 16.7772C0.774617 18.2989 1.94481 19.6907 3.48744 19.6907L11.2247 19.6907C11.9915 19.6907 12.5754 20.3791 12.4513 21.1366L11.4616 27.1766C11.301 28.1578 11.3468 29.1619 11.5965 30.1243C11.8033 30.9216 12.4184 31.5618 13.2274 31.8216L13.4439 31.8912C13.9328 32.0483 14.4664 32.0117 14.9274 31.7896C15.4347 31.5451 15.806 31.0992 15.9435 30.5688L16.6539 27.8302C16.88 26.9588 17.2091 26.1178 17.6337 25.323C18.254 24.1619 19.213 23.2326 20.2098 22.3736L22.3584 20.5221C22.9642 20 23.2823 19.2182 23.2134 18.4211L22.0005 4.39447C21.8893 3.10795 20.8136 2.12024 19.5237 2.12024L12.5817 2.12024C7.38286 2.12024 2.9461 5.74252 2.09131 10.6846Z" fill="white" stroke="white"/>
<path fill-rule="evenodd" clip-rule="evenodd" d="M27.9283 20.8094C27.329 20.8352 26.8158 20.3844 26.7641 19.7868L25.3132 3.00678C25.22 1.92888 26.069 0.999861 27.1532 0.999861C28.1743 0.999861 29 1.82837 29 2.84759L29 19.6904C29 20.2902 28.5275 20.7835 27.9283 20.8094Z" fill="white" stroke="white"/>
</svg>
