<svg width="30" height="33" viewBox="0 0 30 33" fill="none" xmlns="http://www.w3.org/2000/svg">
<path d="M27.9087 22.3027L28.9623 16.2101C29.2254 14.6884 28.0552 13.2966 26.5126 13.2966H18.7753C18.0085 13.2966 17.4246 12.6083 17.5487 11.8507L18.5384 5.81072C18.699 4.82948 18.6532 3.82543 18.4035 2.86299C18.1967 2.06572 17.5816 1.42553 16.7726 1.16566L16.5561 1.0961C16.0672 0.939044 15.5336 0.975587 15.0726 1.19771C14.5653 1.4422 14.194 1.88814 14.0565 2.41852L13.3461 5.15711C13.12 6.02847 12.7909 6.86955 12.3663 7.66427C11.746 8.82543 10.787 9.75472 9.79016 10.6137L7.64163 12.4652C7.03583 12.9873 6.71769 13.7691 6.78662 14.5662L7.99948 28.5928C8.11072 29.8794 9.18638 30.8671 10.4763 30.8671H17.4183C22.6171 30.8671 27.0539 27.2448 27.9087 22.3027Z" fill="white" stroke="white"/>
<path fill-rule="evenodd" clip-rule="evenodd" d="M2.07173 12.1779C2.67096 12.1521 3.18419 12.6029 3.23586 13.2005L4.6868 29.9805C4.78 31.0584 3.93097 31.9874 2.84684 31.9874C1.82566 31.9874 1 31.1589 1 30.1397V13.2969C1 12.6971 1.4725 12.2038 2.07173 12.1779Z" fill="white" stroke="white"/>
</svg>
