<svg width="41" height="40" viewBox="0 0 41 40" fill="none" xmlns="http://www.w3.org/2000/svg">
<circle cx="20.3584" cy="20" r="20" fill="#C1FF7F"/>
<path d="M27.0277 14.096C26.9477 16.528 26.9077 18.712 26.9077 20.648C26.9077 22.584 26.9477 24.768 27.0277 27.2H22.2997V23.024H20.3557C19.2517 24.768 18.4197 26.16 17.8597 27.2H12.2197C13.4997 25.456 14.5797 23.952 15.4597 22.688C14.2277 22.368 13.3557 21.848 12.8437 21.128C12.3317 20.408 12.0757 19.52 12.0757 18.464C12.0757 17.136 12.5557 16.08 13.5157 15.296C14.4757 14.512 16.1717 14.12 18.6037 14.12H22.2997V14.096H27.0277ZM22.2997 19.64V17.576H20.1397C18.9717 17.576 18.1797 17.648 17.7637 17.792C17.3637 17.936 17.1637 18.2 17.1637 18.584C17.1637 18.984 17.3717 19.264 17.7877 19.424C18.2197 19.568 19.0037 19.64 20.1397 19.64H22.2997Z" fill="#83AE56"/>
</svg>
