<svg width="49" height="49" viewBox="0 0 49 49" fill="none" xmlns="http://www.w3.org/2000/svg">
<path d="M43.1667 0H5.83333C2.61683 0 0 2.61683 0 5.83333V43.1667C0 46.3832 2.61683 49 5.83333 49H43.1667C46.3832 49 49 46.3832 49 43.1667V5.83333C49 2.61683 46.3832 0 43.1667 0ZM38.507 21.3768C38.2422 21.4013 37.9738 21.4177 37.702 21.4177C34.6418 21.4177 42.5645 35.3788 41 33C41 39.2405 34.1118 48.0752 31.5 39C31.5 44.4938 25.9338 40.873 20.44 40.873C14.9462 40.873 10.4918 36.4187 10.4918 30.9248C10.4918 25.431 -1.49383 16.5 4 16.5C8.06 10.0233 25.5663 14.4872 25.7705 14.5L8 20C8 20 7.99183 14.7288 10.4918 19.2288C7.68717 19.2288 14.5 15.1836 14.5 17.9882C14.5 20.7929 12.558 16.5 15.3627 16.5C18.1673 16.5 19 13.8047 19 11C19 10.8892 25.7705 8.12933 25.7705 8.12933L34 4.5C34.441 8.6895 39.772 10.6967 44 11L38.507 21.3768Z" fill="white"/>
<path d="M24 0C37.255 0 48 10.745 48 24C48 37.255 37.255 48 24 48C10.745 48 0 37.255 0 24C0 10.745 10.745 0 24 0ZM32.279 33.783C32.72 32.429 34.789 18.93 35.044 16.27C35.121 15.464 34.867 14.929 34.368 14.69C33.765 14.4 32.872 14.545 31.835 14.919C30.414 15.431 12.245 23.146 11.195 23.592C10.2 24.015 9.258 24.476 9.258 25.144C9.258 25.614 9.537 25.878 10.305 26.152C11.104 26.437 13.117 27.047 14.306 27.375C15.451 27.691 16.754 27.417 17.484 26.963C18.258 26.482 27.194 20.503 27.835 19.979C28.476 19.455 28.987 20.126 28.463 20.651C27.939 21.175 21.806 27.128 20.997 27.952C20.015 28.953 20.712 29.99 21.371 30.405C22.123 30.879 27.534 34.508 28.349 35.09C29.164 35.672 29.99 35.936 30.747 35.936C31.504 35.936 31.902 34.94 32.279 33.783Z" fill="white"/>
</svg>
