<svg width="49" height="49" viewBox="0 0 49 49" fill="none" xmlns="http://www.w3.org/2000/svg">
<path d="M43.1667 0H5.83333C2.61683 0 0 2.61683 0 5.83333V43.1667C0 46.3832 2.61683 49 5.83333 49H43.1667C46.3832 49 49 46.3832 49 43.1667V5.83333C49 2.61683 46.3832 0 43.1667 0ZM38.507 21.3768C38.2422 21.4013 37.9738 21.4177 37.702 21.4177C34.6418 21.4177 31.9527 19.8438 30.3882 17.465C30.3882 23.7055 30.3882 30.8058 30.3882 30.9248C30.3882 36.4187 25.9338 40.873 20.44 40.873C14.9462 40.873 10.4918 36.4187 10.4918 30.9248C10.4918 25.431 14.9462 20.9767 20.44 20.9767C20.6477 20.9767 20.8507 20.9953 21.0548 21.0082V25.9105C20.8507 25.886 20.65 25.8487 20.44 25.8487C17.6353 25.8487 15.3627 28.1213 15.3627 30.926C15.3627 33.7307 17.6353 36.0033 20.44 36.0033C23.2447 36.0033 25.7215 33.7937 25.7215 30.989C25.7215 30.8782 25.7705 8.12933 25.7705 8.12933H30.4558C30.8968 12.3188 34.279 15.6252 38.507 15.9285V21.3768Z" fill="white"/>
</svg>
