<svg width="49" height="49" viewBox="0 0 49 49" fill="none" xmlns="http://www.w3.org/2000/svg">
<path d="M45.8776 0H3.12928C1.4004 0 0 1.4004 0 3.12582V45.8742C0 47.5996 1.4004 49 3.12928 49H45.8742C47.5996 49 49 47.5996 49 45.8742V3.12582C49.0035 1.39694 47.6031 0 45.8776 0ZM40.646 29.8578C41.5416 30.7707 43.4849 32.3025 43.1322 33.8619C42.8071 35.2934 40.6702 34.7713 38.5956 34.8543C36.227 34.9546 34.8232 35.0064 33.3986 33.8619C32.7278 33.319 32.3336 32.6759 31.6904 31.9567C31.1061 31.3066 30.3696 30.1413 29.3668 30.1863C27.5653 30.2762 28.1289 32.7865 27.4892 34.4981C17.4755 36.0749 13.4542 29.8889 9.9065 23.8862C8.18799 20.9783 5.70531 14.7335 5.70531 14.7335L12.7868 14.7093C12.7868 14.7093 15.0586 18.8414 15.6602 19.9064C16.172 20.8123 16.7356 21.5315 17.3165 22.3406C17.804 23.0114 18.5751 24.3254 19.4188 24.2182C20.7915 24.0418 21.0405 18.7169 20.1899 16.9327C19.851 16.21 19.0385 15.9576 18.1982 15.7121C18.4818 13.921 26.1407 13.5475 27.3786 14.9375C29.1766 16.9569 26.1338 22.5792 28.5957 24.2182C32.0535 22.4063 35.0064 14.82 35.0064 14.82L43.2981 14.8719C43.2981 14.8719 42.0015 18.9728 40.6426 20.7915C39.8508 21.8565 37.2229 24.2286 37.3266 25.9886C37.4096 27.382 39.5465 28.7375 40.646 29.8578Z" fill="white"/>
</svg>
