<svg width="51" height="51" viewBox="0 0 51 51" fill="none" xmlns="http://www.w3.org/2000/svg">
<path d="M22.2363 30.2182L30.2562 25.5096L22.2363 20.801V30.2182Z" fill="white" stroke="white" stroke-width="0.390625"/>
<path d="M46.1719 1H4.82812C2.71309 1 1 2.71309 1 4.82812V46.1719C1 48.2869 2.71309 50 4.82812 50H46.1719C48.2869 50 50 48.2869 50 46.1719V4.82812C50 2.71309 48.2869 1 46.1719 1ZM39.75 30.8832C39.75 35.1037 33.5295 35.1037 33.5295 35.1037H17.4705C11.25 35.1037 11.25 29.8832 11.25 29.8832V20.1264C11.25 15.9059 17.4705 15.9059 17.4705 15.9059H33.5295C39.75 15.9059 39.75 21.1264 39.75 21.1264V30.8832Z" fill="white" stroke="white" stroke-width="0.390625"/>
</svg>
